<svg width="32" height="32" fill="none" xmlns="http://www.w3.org/2000/svg"><path d="M17.232 18.332v-.558a1.232 1.232 0 10-2.463 0v.558a1.232 1.232 0 102.463 0z" fill="#F0145A"/><path d="M18.077 19.014A2.177 2.177 0 0116 20.563a2.177 2.177 0 01-2.076-1.55H5.439a3.47 3.47 0 01-1.496-.34v5.634c0 1.1.9 2 2 2h20.114c1.1 0 2-.9 2-2v-5.633c-.455.216-.96.34-1.496.34h-8.484zm8.4-10.117h-4.8a3.809 3.809 0 00-3.754-3.204h-3.846a3.81 3.81 0 00-3.755 3.204h-4.8c-1.146 0-2.083.9-2.083 2v4.617a2 2 0 002 2h8.39a2.171 2.171 0 01.666-1.466c.012-.012.026-.021.039-.032.086-.08.176-.154.274-.22.036-.023.075-.039.112-.06.081-.046.161-.095.248-.131.069-.029.143-.045.215-.066.062-.019.121-.043.186-.056a2.155 2.155 0 01.862 0c.064.012.123.037.185.056.073.021.146.037.215.066.087.037.166.085.247.131.038.021.078.037.113.061.099.064.188.14.274.219.013.012.027.02.04.033.39.373.637.89.666 1.466h8.39a2 2 0 002-2v-4.617c0-1.1-.938-2-2.084-2zm-14.229 0a1.93 1.93 0 011.829-1.332h3.846a1.93 1.93 0 011.829 1.332h-7.504z" fill="#F0145A"/></svg>