<svg width="32" height="32" fill="none" xmlns="http://www.w3.org/2000/svg"><path d="M27.113 6.306a.82.82 0 00-.598-.253c-.114 0-.355.094-.723.28-.367.186-.757.393-1.168.624a8.49 8.49 0 01-1.46.623c-.562.186-1.082.28-1.56.28-.442 0-.832-.084-1.168-.253-1.114-.522-2.084-.911-2.907-1.168a8.879 8.879 0 00-2.655-.386c-1.636 0-3.5.532-5.589 1.594-.431.215-.74.382-.94.504l-.199-1.456a2.11 2.11 0 00.738-1.597 2.124 2.124 0 10-4.248 0c0 .765.409 1.43 1.016 1.805l2.87 21.045a1.25 1.25 0 002.476-.338l-1.153-8.459c2.093-1.038 3.903-1.561 5.426-1.561.647 0 1.277.096 1.892.291.615.195 1.127.407 1.534.637.407.23.887.443 1.44.637a4.91 4.91 0 001.639.293c1.363 0 2.995-.514 4.898-1.54.239-.125.414-.247.524-.366.111-.12.166-.29.166-.51V6.903a.82.82 0 00-.25-.597z" fill="#F0145A"/></svg>