<svg width="156" height="63" fill="none" xmlns="http://www.w3.org/2000/svg"><path d="M10.803 57.591c0-1.111-.381-2.048-1.133-2.822a3.675 3.675 0 00-2.735-1.155c-.97 0-1.808.305-2.517.926-.697.61-1.133 1.352-1.296 2.234H2.087v-2.996H.452v7.627h1.635V58.3h1.035c.163.926.599 1.71 1.296 2.331.698.621 1.537.937 2.517.937 1.068 0 1.983-.381 2.735-1.155.752-.762 1.133-1.71 1.133-2.822zm-1.634 0c0 .72-.218 1.319-.654 1.787-.447.48-.97.72-1.58.72-.61 0-1.133-.24-1.569-.72-.446-.468-.664-1.068-.664-1.787 0-.719.218-1.318.664-1.797.436-.47.96-.709 1.57-.709.61 0 1.133.24 1.58.709.435.479.653 1.078.653 1.797zm4.243-3.813v7.628h1.634V58.9h1.58c.785 0 1.439-.251 1.95-.742.513-.49.774-1.1.774-1.82 0-.73-.261-1.328-.773-1.83-.523-.49-1.166-.73-1.95-.73h-3.215zm3.16 1.471c.327 0 .6.11.817.316.218.207.327.469.327.774 0 .305-.109.567-.327.773-.218.207-.49.316-.817.316h-1.525V55.25h1.525zm12.142 6.157v-7.628h-1.416l-3.76 4.85v-4.85h-1.634v7.628h1.417l3.759-4.85v4.85h1.634zm2.062-1.471v3.05h1.635v-1.58h4.576v1.58h1.634v-3.05h-.926v-6.157h-5.284v2.343c0 .512-.044.991-.131 1.438a7.289 7.289 0 01-.283 1.09 5.089 5.089 0 01-.37.73c-.142.218-.23.36-.284.425-.065.054-.098.109-.13.13h-.437zm3.27-3.814v-.872h2.015v4.686h-3.214l.13-.131c.077-.087.175-.229.295-.436s.228-.447.348-.72c.12-.272.218-.642.294-1.089.088-.447.131-.926.131-1.438zm13.717 5.285v-7.628h-1.416l-3.76 4.85v-4.85h-1.634v7.628h1.417l3.759-4.85v4.85h1.634zm4.571-7.628h-1.635v2.343c0 .915.24 1.623.72 2.125.49.512 1.154.762 2.004.762.73 0 1.33-.141 1.798-.435v2.833h1.635v-7.628H55.22v3.215l-.185.141c-.12.087-.305.175-.556.273a2.37 2.37 0 01-.784.13c-.436 0-.774-.12-1.014-.36-.229-.25-.348-.598-.348-1.056v-2.343zm14.104 0h-1.634v3.051h-3.27v-3.05H59.9v7.627h1.635V58.3h3.269v3.106h1.634v-7.628zm6.969 4.413h-1.853l.926-2.506.927 2.506zm.544 1.417l.654 1.798h1.743l-2.996-7.628H71.61l-2.997 7.628h1.744l.653-1.798h2.942zm9.523-5.83H81.84v7.628h1.634v-2.18l.98-1.09 2.235 3.27h1.906l-3.05-4.468 2.832-3.16h-1.906l-2.997 3.324v-3.324zm8.439 3.813c0-.697.24-1.296.72-1.776.468-.49 1.046-.73 1.732-.73.687 0 1.264.24 1.733.73.479.48.719 1.079.719 1.776 0 .709-.24 1.297-.72 1.776-.468.49-1.045.73-1.732.73-.686 0-1.264-.24-1.732-.73-.48-.479-.72-1.067-.72-1.776zm-1.688 0c0 1.09.403 2.038 1.198 2.812.796.773 1.776 1.165 2.942 1.165 1.166 0 2.147-.392 2.942-1.165.796-.774 1.199-1.722 1.199-2.812 0-1.1-.403-2.037-1.199-2.81-.795-.774-1.776-1.167-2.942-1.167-1.166 0-2.146.393-2.942 1.166-.795.774-1.198 1.71-1.198 2.811zm14.975-.489l-2.615-3.324h-1.471v7.628h1.635v-5.067l2.451 3.105 2.452-3.127v5.089h1.634v-7.628h-1.449l-2.637 3.324zm13.611-3.324h-6.483v7.628h1.635v-6.157h3.214v6.157h1.634v-7.628zm6.971 4.413h-1.853l.926-2.506.927 2.506zm.544 1.417l.654 1.798h1.743l-2.996-7.628h-1.743l-2.997 7.628h1.744l.653-1.798h2.942zm11.109-5.83h-1.634v3.051h-3.269v-3.05h-1.635v7.627h1.635V58.3h3.269v3.106h1.634v-7.628zm4.679 0h-1.635v7.628h1.635v-7.628zm8.711 0h-3.378c-.763 0-1.384.24-1.874.72a2.41 2.41 0 00-.741 1.786c0 .306.054.589.142.861.098.273.207.48.337.632.12.153.251.294.414.425a2.2 2.2 0 00.327.25c.055.023.109.055.142.066l-1.634 2.888h1.743l1.471-2.67h1.416v2.67h1.635v-7.628zm-4.359 2.506a1.01 1.01 0 011.036-1.035h1.688v2.016h-1.688c-.295 0-.545-.098-.741-.283a.928.928 0 01-.295-.698z" fill="#46466E"/><path d="M5.433.5H.453v35.975h4.98V23.129c0-2.258.562-4.04 1.685-5.294 1.123-1.254 2.662-1.906 4.566-1.906 1.636 0 3.003.602 4.102 1.756 1.099 1.179 1.66 2.659 1.66 4.44V36.5h5.006V22.125c0-3.311-.903-5.92-2.71-7.877-1.807-1.957-4.176-2.935-7.057-2.935-.83 0-1.66.1-2.466.326-.83.226-1.49.476-2.027.752-.537.276-1.05.577-1.513.928-.464.352-.782.603-.928.753-.147.15-.269.251-.318.326V.5z" fill="#F0145A"/><path d="M33.587.5h-5.135v35.945h5.135V.5zm30.288 25.418l.256-2.567c0-3.441-1.13-6.317-3.44-8.627-2.31-2.311-5.186-3.44-8.627-3.44-3.44 0-6.419 1.232-8.883 3.696-2.465 2.465-3.698 5.392-3.698 8.884 0 3.595 1.284 6.675 3.8 9.243 2.517 2.568 5.546 3.851 9.038 3.851 1.335 0 2.567-.205 3.8-.565 1.232-.41 2.26-.821 2.978-1.232.77-.462 1.54-.976 2.208-1.54.668-.565 1.13-.976 1.335-1.233.206-.257.36-.41.462-.565l-3.337-3.338-.77.976c-.514.616-1.387 1.233-2.62 1.9-1.283.668-2.618.976-4.056.976-2.003 0-3.697-.617-5.135-1.9-1.438-1.284-2.31-2.773-2.568-4.519h19.257zm-11.81-10.27c1.9 0 3.44.565 4.723 1.643 1.233 1.13 2.003 2.516 2.311 4.262H44.824c.462-1.746 1.284-3.132 2.567-4.262 1.233-1.078 2.825-1.643 4.673-1.643zm35.759 19.308c0 2.259-.668 4.108-2.054 5.545-1.335 1.387-3.03 2.106-5.135 2.106a9.702 9.702 0 01-2.722-.411c-.873-.257-1.54-.565-2.105-.924a11.605 11.605 0 01-1.592-1.181l-.924-.925c-.154-.154-.257-.308-.36-.41l-3.338 3.337.411.514c.257.36.72.821 1.335 1.335.617.462 1.335.975 2.157 1.489.822.462 1.849.873 3.132 1.232a14.8 14.8 0 004.006.565c3.491 0 6.367-1.18 8.78-3.543 2.363-2.413 3.544-5.289 3.544-8.78V11.796h-5.135v2.567l-.873-.77c-.565-.513-1.438-1.027-2.67-1.54a10.17 10.17 0 00-3.903-.77c-3.132 0-5.803 1.18-8.113 3.594-2.311 2.413-3.44 5.289-3.44 8.73 0 3.44 1.129 6.315 3.44 8.729 2.31 2.413 4.98 3.594 8.113 3.594.873 0 1.695-.102 2.567-.308.822-.257 1.49-.513 2.055-.77a7.667 7.667 0 001.54-.924c.462-.36.822-.617.924-.72l.36-.359v2.106zM73.959 23.607c0-2.156.668-3.954 2.054-5.443 1.387-1.489 3.03-2.26 4.878-2.26 1.85 0 3.492.771 4.879 2.26 1.335 1.49 2.054 3.287 2.054 5.443 0 2.157-.72 3.954-2.054 5.443-1.387 1.49-3.03 2.26-4.879 2.26-1.848 0-3.491-.77-4.878-2.26-1.386-1.489-2.054-3.286-2.054-5.443zm45.801 12.838V20.526c0-2.619-.975-4.827-2.875-6.573-1.9-1.797-4.365-2.67-7.395-2.67a13.3 13.3 0 00-3.491.462c-1.13.36-2.054.72-2.722 1.13-.667.41-1.335.873-1.951 1.438-.616.513-.976.873-1.181 1.078-.154.206-.308.36-.411.514l3.338 3.338.667-.873c.411-.565 1.13-1.079 2.208-1.644 1.079-.564 2.26-.821 3.543-.821 1.49 0 2.722.462 3.698 1.335.975.873 1.437 2.003 1.437 3.286l-8.986 1.54c-2.208.36-4.005 1.233-5.238 2.62-1.283 1.386-1.95 3.08-1.95 5.083 0 1.9.82 3.543 2.464 4.981 1.695 1.49 3.749 2.208 6.265 2.208.873 0 1.694-.102 2.516-.36a11.07 11.07 0 002.105-.718 7.66 7.66 0 001.541-.924c.462-.36.77-.617.975-.72.154-.153.257-.307.308-.359v2.568h5.135zm-11.81-4.108c-1.335 0-2.413-.308-3.184-.925-.821-.616-1.181-1.335-1.181-2.156 0-.873.257-1.643.822-2.208.565-.565 1.335-.976 2.259-1.13l7.959-1.284v.514c0 2.31-.564 4.056-1.745 5.34-1.181 1.233-2.825 1.849-4.93 1.849zM131.092.5h-5.135v35.945h5.135V.5zm23.349 14.121l-.308-.36c-.205-.205-.513-.462-.975-.821-.463-.36-.976-.668-1.541-1.027-.565-.308-1.335-.565-2.259-.822a13.34 13.34 0 00-2.876-.308c-2.516 0-4.57.72-6.213 2.157-1.695 1.49-2.516 3.132-2.516 5.032 0 1.387.308 2.516.924 3.543.616.976 1.386 1.695 2.362 2.106.924.462 1.951.924 3.03 1.284 1.078.359 2.054.667 3.029.924.925.308 1.695.667 2.311 1.13.616.462.924 1.078.924 1.797 0 .924-.359 1.694-1.027 2.26-.667.513-1.694.82-3.081.82-1.129 0-2.259-.307-3.337-.82-1.079-.566-1.746-1.028-2.106-1.387-.308-.36-.565-.668-.719-.873l-3.337 3.337.359.463c.257.308.616.667 1.13 1.078.565.462 1.181.873 1.848 1.284.719.41 1.644.77 2.722 1.078 1.078.308 2.259.462 3.44.462 2.722 0 4.981-.77 6.676-2.26 1.694-1.488 2.567-3.337 2.567-5.442 0-1.387-.308-2.568-.924-3.492-.616-.976-1.386-1.695-2.362-2.157-.924-.513-1.951-.924-3.03-1.284-1.078-.359-2.054-.718-3.029-.924a6.93 6.93 0 01-2.311-1.13c-.616-.462-.924-1.078-.924-1.797 0-.667.308-1.284.975-1.797.616-.514 1.489-.77 2.619-.77.822 0 1.643.205 2.414.565.821.359 1.386.667 1.643.924l.565.565 3.337-3.338z" fill="#323264"/></svg>