<svg width="156" height="62" fill="none" xmlns="http://www.w3.org/2000/svg"><path d="M10.351 56.669c0-1.097-.381-2.021-1.133-2.785-.752-.763-1.667-1.14-2.735-1.14-.97 0-1.809.302-2.517.914-.697.602-1.133 1.334-1.296 2.204H1.634v-2.956H0v7.526h1.634v-3.064H2.67a3.905 3.905 0 001.296 2.3c.698.613 1.537.925 2.517.925 1.068 0 1.983-.376 2.735-1.14.752-.752 1.133-1.688 1.133-2.784zm-1.634 0c0 .71-.218 1.3-.654 1.763-.447.473-.97.71-1.58.71-.61 0-1.133-.237-1.569-.71-.447-.462-.665-1.054-.665-1.763 0-.71.218-1.301.665-1.774.436-.462.959-.699 1.57-.699.61 0 1.132.237 1.58.699.435.473.653 1.064.653 1.774zm4.243-3.763v7.526h1.634V57.96h1.58c.785 0 1.439-.247 1.95-.73a2.381 2.381 0 00.774-1.796c0-.72-.261-1.312-.773-1.806-.523-.484-1.166-.72-1.95-.72H12.96zm3.16 1.452c.327 0 .6.107.817.312.218.204.327.462.327.763s-.11.559-.327.763a1.15 1.15 0 01-.817.312h-1.526v-2.15h1.526zm12.142 6.074v-7.526h-1.416l-3.76 4.785v-4.785h-1.634v7.526h1.417l3.759-4.784v4.784h1.634zm2.062-1.452v3.011h1.635v-1.559h4.576v1.56h1.634V58.98h-.926v-6.075H31.96v2.312c0 .505-.044.978-.131 1.42a7.134 7.134 0 01-.283 1.074 4.996 4.996 0 01-.37.72c-.143.216-.23.355-.284.42-.066.054-.098.107-.13.129h-.437zm3.269-3.762v-.86h2.016v4.623h-3.215l.131-.13c.077-.085.175-.225.294-.43.12-.203.23-.44.35-.709.119-.269.217-.634.293-1.075.087-.44.131-.914.131-1.42zm13.718 5.214v-7.526h-1.416l-3.76 4.785v-4.785h-1.634v7.526h1.416l3.76-4.784v4.784h1.634zm4.571-7.526h-1.635v2.312c0 .903.24 1.602.72 2.096.49.506 1.154.753 2.004.753.73 0 1.33-.14 1.798-.43v2.795h1.634v-7.526H54.77v3.172l-.185.14c-.12.086-.305.172-.556.269a2.4 2.4 0 01-.785.129c-.435 0-.773-.119-1.013-.355-.229-.248-.348-.592-.348-1.043v-2.312zm14.104 0H64.35v3.01h-3.268v-3.01h-1.635v7.526h1.635v-3.064h3.269v3.064h1.634v-7.526zm6.968 4.354h-1.852l.926-2.472.926 2.473zm.545 1.398l.654 1.774h1.743L72.9 52.906h-1.743l-2.997 7.526h1.743l.654-1.774H73.5zm9.523-5.752h-1.634v7.526h1.634v-2.15l.98-1.075 2.234 3.225h1.907l-3.05-4.408 2.832-3.118H86.02l-2.997 3.28v-3.28zm8.439 3.763c0-.688.24-1.28.72-1.753.468-.483 1.046-.72 1.732-.72.686 0 1.264.237 1.732.72.48.473.72 1.065.72 1.753 0 .699-.24 1.28-.72 1.752-.468.484-1.046.72-1.732.72-.686 0-1.264-.236-1.733-.72-.479-.473-.719-1.053-.719-1.752zm-1.689 0c0 1.075.404 2.01 1.199 2.774.795.763 1.776 1.15 2.942 1.15 1.166 0 2.147-.387 2.942-1.15.795-.764 1.198-1.699 1.198-2.774 0-1.086-.403-2.01-1.198-2.774-.796-.763-1.776-1.15-2.942-1.15-1.166 0-2.147.387-2.942 1.15-.795.763-1.199 1.688-1.199 2.774zm14.976-.483l-2.615-3.28h-1.471v7.526h1.635v-4.999l2.451 3.064 2.452-3.086v5.021h1.634v-7.526h-1.449l-2.637 3.28zm13.611-3.28h-6.483v7.526h1.634v-6.074h3.215v6.074h1.634v-7.526zm6.97 4.354h-1.852l.926-2.472.926 2.473zm.545 1.398l.654 1.774h1.743l-2.996-7.526h-1.743l-2.997 7.526h1.744l.653-1.774h2.942zm11.109-5.752h-1.634v3.01h-3.269v-3.01h-1.635v7.526h1.635v-3.064h3.269v3.064h1.634v-7.526zm4.679 0h-1.635v7.526h1.635v-7.526zm8.711 0h-3.378c-.763 0-1.384.237-1.874.71a2.359 2.359 0 00-.741 1.763c0 .301.054.58.141.85.099.268.207.473.338.623.12.15.251.29.414.42.153.129.262.215.327.247.055.021.109.053.142.064l-1.635 2.85h1.744l1.471-2.635h1.416v2.634h1.635v-7.526zm-4.359 2.473c0-.3.098-.537.294-.73a1.02 1.02 0 01.741-.291h1.689v1.989h-1.689c-.294 0-.544-.097-.741-.28a.912.912 0 01-.294-.688z" fill="#fff"/><path d="M4.981.336H0v35.497h4.981V22.664c0-2.228.562-3.985 1.685-5.223s2.661-1.881 4.566-1.881c1.636 0 3.003.594 4.102 1.732 1.099 1.164 1.66 2.624 1.66 4.382v14.184H22V21.674c0-3.268-.903-5.842-2.71-7.773-1.807-1.93-4.176-2.896-7.057-2.896-.83 0-1.66.099-2.466.322-.83.223-1.49.47-2.027.742-.537.273-1.05.57-1.514.916-.464.347-.78.594-.927.743-.147.148-.269.247-.318.322V.336z" fill="#F0145A"/><path d="M33.135.336H28v35.468h5.135V.335zm30.287 25.08l.257-2.533c0-3.395-1.13-6.232-3.44-8.512-2.31-2.28-5.186-3.395-8.627-3.395-3.44 0-6.419 1.216-8.884 3.648-2.464 2.432-3.697 5.32-3.697 8.765 0 3.547 1.284 6.587 3.8 9.12 2.516 2.534 5.546 3.8 9.038 3.8a13.51 13.51 0 003.8-.557c1.232-.405 2.26-.81 2.978-1.216.77-.456 1.54-.962 2.208-1.52.668-.557 1.13-.962 1.335-1.216.206-.253.36-.405.462-.557l-3.337-3.293-.77.962c-.514.608-1.387 1.216-2.62 1.875-1.283.659-2.618.963-4.056.963-2.003 0-3.697-.608-5.135-1.875-1.438-1.267-2.311-2.736-2.568-4.459h19.257zm-11.81-10.133c1.9 0 3.44.557 4.724 1.62 1.233 1.116 2.003 2.484 2.311 4.206H44.372c.462-1.722 1.283-3.09 2.567-4.205 1.233-1.064 2.824-1.621 4.673-1.621zm35.76 19.051c0 2.23-.668 4.053-2.054 5.472-1.335 1.368-3.03 2.077-5.135 2.077a9.823 9.823 0 01-2.722-.405c-.873-.254-1.54-.558-2.105-.912a11.594 11.594 0 01-1.592-1.166l-.924-.912c-.154-.152-.257-.304-.36-.405l-3.338 3.294.411.506c.257.355.719.81 1.335 1.318.616.456 1.335.962 2.157 1.469.822.456 1.849.861 3.132 1.216a14.98 14.98 0 004.006.557c3.491 0 6.367-1.165 8.78-3.496 2.363-2.381 3.544-5.219 3.544-8.664v-22.8h-5.135v2.533l-.873-.76c-.565-.507-1.438-1.014-2.67-1.52a10.29 10.29 0 00-3.903-.76c-3.133 0-5.803 1.165-8.114 3.546-2.31 2.382-3.44 5.22-3.44 8.614 0 3.395 1.13 6.232 3.44 8.614 2.311 2.381 4.981 3.546 8.114 3.546.873 0 1.694-.101 2.567-.304a17.57 17.57 0 002.054-.76 7.676 7.676 0 001.54-.912c.463-.354.822-.608.925-.71l.36-.354v2.078zM73.507 23.136c0-2.128.668-3.901 2.054-5.37 1.386-1.47 3.03-2.23 4.878-2.23 1.849 0 3.492.76 4.879 2.23 1.335 1.469 2.054 3.242 2.054 5.37s-.72 3.902-2.054 5.37c-1.387 1.47-3.03 2.23-4.879 2.23-1.848 0-3.491-.76-4.878-2.23-1.386-1.468-2.054-3.242-2.054-5.37zm45.801 12.667V20.096c0-2.584-.975-4.763-2.875-6.486-1.9-1.773-4.365-2.634-7.395-2.634-1.181 0-2.362.152-3.491.456-1.13.354-2.054.71-2.722 1.114-.668.406-1.335.862-1.951 1.42-.617.506-.976.86-1.181 1.063-.154.203-.308.355-.411.507l3.338 3.293.667-.861c.411-.558 1.13-1.064 2.208-1.622 1.079-.557 2.26-.81 3.543-.81 1.489 0 2.722.456 3.698 1.317.975.862 1.437 1.976 1.437 3.243l-8.986 1.52c-2.208.355-4.005 1.216-5.238 2.584-1.283 1.368-1.951 3.04-1.951 5.016 0 1.875.822 3.496 2.465 4.915 1.694 1.47 3.748 2.179 6.265 2.179.873 0 1.694-.102 2.516-.355a11.14 11.14 0 002.105-.71 7.707 7.707 0 001.541-.911c.462-.355.77-.608.975-.71.154-.152.257-.304.308-.354v2.533h5.135zm-11.81-4.053c-1.335 0-2.414-.304-3.184-.912-.821-.608-1.181-1.318-1.181-2.129 0-.86.257-1.62.822-2.178.565-.558 1.335-.963 2.259-1.115l7.959-1.267v.507c0 2.28-.565 4.003-1.746 5.27-1.181 1.216-2.824 1.824-4.929 1.824zM130.64.336h-5.135v35.468h5.135V.335zm23.349 13.934l-.308-.355c-.205-.203-.513-.457-.976-.811-.462-.355-.975-.659-1.54-1.014-.565-.304-1.335-.557-2.259-.81a13.51 13.51 0 00-2.876-.304c-2.516 0-4.57.71-6.213 2.128-1.695 1.47-2.517 3.09-2.517 4.965 0 1.368.309 2.483.925 3.496.616.963 1.386 1.672 2.362 2.078.924.456 1.951.912 3.03 1.266 1.078.355 2.054.66 3.029.912.924.304 1.695.66 2.311 1.115.616.456.924 1.064.924 1.773 0 .913-.359 1.673-1.027 2.23-.667.507-1.694.81-3.081.81-1.129 0-2.259-.303-3.338-.81-1.078-.557-1.745-1.014-2.105-1.368a19.737 19.737 0 01-.719-.862l-3.338 3.294.36.456c.257.304.616.659 1.13 1.064.564.456 1.181.861 1.848 1.267.719.405 1.643.76 2.722 1.064 1.078.304 2.259.456 3.44.456 2.722 0 4.981-.76 6.676-2.23 1.694-1.469 2.567-3.293 2.567-5.37 0-1.369-.308-2.534-.924-3.446-.616-.963-1.387-1.672-2.362-2.128-.924-.507-1.951-.912-3.03-1.267-1.078-.354-2.054-.709-3.029-.912a6.965 6.965 0 01-2.311-1.114c-.616-.456-.925-1.064-.925-1.774 0-.659.309-1.267.976-1.773.616-.507 1.489-.76 2.619-.76.822 0 1.643.203 2.413.557.822.355 1.387.659 1.644.912l.564.558 3.338-3.294z" fill="#fff"/></svg>