<svg width="64" height="64" fill="none" xmlns="http://www.w3.org/2000/svg"><rect width="64" height="64" rx="18" fill="#fff"/><path d="M51.612 35.938a3.847 3.847 0 00-1.479-.296 3.857 3.857 0 00-2.877 1.282l-.84-.348-2.392-.99c.34-1.137.523-2.34.523-3.586a12.51 12.51 0 00-.523-3.585l2.393-.991.839-.348a3.857 3.857 0 002.877 1.281 3.872 3.872 0 003.572-5.348 3.857 3.857 0 00-3.574-2.388 3.873 3.873 0 00-3.86 4.072l-.844.35-2.392.99a12.637 12.637 0 00-5.069-5.069l.991-2.391.35-.843a3.857 3.857 0 003.777-2.382A3.872 3.872 0 0039.512 10c-1.57 0-2.973.937-3.574 2.388a3.873 3.873 0 00.987 4.354l-.348.841-.991 2.393A12.508 12.508 0 0032 19.453c-1.245 0-2.448.183-3.585.523l-.991-2.393-.348-.84a3.873 3.873 0 00.987-4.355A3.857 3.857 0 0024.489 10a3.872 3.872 0 00-3.572 5.348 3.857 3.857 0 003.777 2.382l.35.843.99 2.392a12.637 12.637 0 00-5.07 5.069l-2.39-.99-.845-.35a3.874 3.874 0 00-3.86-4.072c-1.57 0-2.973.937-3.574 2.388a3.872 3.872 0 003.572 5.347 3.857 3.857 0 002.878-1.28l.839.347 2.392.99A12.503 12.503 0 0019.453 32c0 1.245.184 2.449.523 3.585l-2.392.991-.84.348a3.857 3.857 0 00-4.356-.986 3.872 3.872 0 00-2.093 5.052 3.857 3.857 0 003.574 2.388 3.873 3.873 0 003.86-4.072l.844-.35 2.392-.99a12.636 12.636 0 005.069 5.07l-.99 2.391-.35.843a3.857 3.857 0 00-3.777 2.382A3.872 3.872 0 0024.489 54c1.57 0 2.973-.937 3.573-2.388a3.873 3.873 0 00-.986-4.355l.348-.84.99-2.393c1.137.34 2.34.523 3.586.523 1.245 0 2.449-.183 3.585-.523l.991 2.393.349.84a3.874 3.874 0 00-.987 4.355A3.857 3.857 0 0039.51 54a3.872 3.872 0 003.572-5.348 3.857 3.857 0 00-3.777-2.382l-.35-.843-.99-2.392a12.637 12.637 0 005.07-5.069l2.391.99.844.35a3.873 3.873 0 003.86 4.072c1.57 0 2.973-.937 3.574-2.388a3.871 3.871 0 00-2.093-5.053zM32 41.968c-5.497 0-9.968-4.471-9.968-9.968s4.471-9.97 9.968-9.97 9.97 4.473 9.97 9.97c0 5.497-4.472 9.969-9.969 9.969z" fill="#000"/><path d="M51.612 35.938a3.847 3.847 0 00-1.479-.296 3.857 3.857 0 00-2.877 1.282l-.84-.348-2.392-.99c.34-1.137.523-2.34.523-3.586a12.51 12.51 0 00-.523-3.585l2.393-.991.839-.348a3.857 3.857 0 002.877 1.281 3.872 3.872 0 003.572-5.348 3.857 3.857 0 00-3.574-2.388 3.873 3.873 0 00-3.86 4.072l-.844.35-2.392.99a12.637 12.637 0 00-5.069-5.069l.991-2.391.35-.843a3.857 3.857 0 003.777-2.382A3.872 3.872 0 0039.512 10c-1.57 0-2.973.937-3.574 2.388a3.873 3.873 0 00.987 4.354l-.348.841-.991 2.393A12.508 12.508 0 0032 19.453c-1.245 0-2.448.183-3.585.523l-.991-2.393-.348-.84a3.873 3.873 0 00.987-4.355A3.857 3.857 0 0024.489 10a3.872 3.872 0 00-3.572 5.348 3.857 3.857 0 003.777 2.382l.35.843.99 2.392a12.637 12.637 0 00-5.07 5.069l-2.39-.99-.845-.35a3.874 3.874 0 00-3.86-4.072c-1.57 0-2.973.937-3.574 2.388a3.872 3.872 0 003.572 5.347 3.857 3.857 0 002.878-1.28l.839.347 2.392.99A12.503 12.503 0 0019.453 32c0 1.245.184 2.449.523 3.585l-2.392.991-.84.348a3.857 3.857 0 00-4.356-.986 3.872 3.872 0 00-2.093 5.052 3.857 3.857 0 003.574 2.388 3.873 3.873 0 003.86-4.072l.844-.35 2.392-.99a12.636 12.636 0 005.069 5.07l-.99 2.391-.35.843a3.857 3.857 0 00-3.777 2.382A3.872 3.872 0 0024.489 54c1.57 0 2.973-.937 3.573-2.388a3.873 3.873 0 00-.986-4.355l.348-.84.99-2.393c1.137.34 2.34.523 3.586.523 1.245 0 2.449-.183 3.585-.523l.991 2.393.349.84a3.874 3.874 0 00-.987 4.355A3.857 3.857 0 0039.51 54a3.872 3.872 0 003.572-5.348 3.857 3.857 0 00-3.777-2.382l-.35-.843-.99-2.392a12.637 12.637 0 005.07-5.069l2.391.99.844.35a3.873 3.873 0 003.86 4.072c1.57 0 2.973-.937 3.574-2.388a3.871 3.871 0 00-2.093-5.053zM32 41.968c-5.497 0-9.968-4.471-9.968-9.968s4.471-9.97 9.968-9.97 9.97 4.473 9.97 9.97c0 5.497-4.472 9.969-9.969 9.969z" fill="url(#paint0_linear)"/><path d="M32 24.61c-4.075 0-7.39 3.315-7.39 7.39 0 4.075 3.315 7.39 7.39 7.39 4.075 0 7.39-3.315 7.39-7.39 0-4.075-3.315-7.39-7.39-7.39zm1.289 10.226h-2.578v-5.672h2.578v5.672z" fill="#000"/><path d="M32 24.61c-4.075 0-7.39 3.315-7.39 7.39 0 4.075 3.315 7.39 7.39 7.39 4.075 0 7.39-3.315 7.39-7.39 0-4.075-3.315-7.39-7.39-7.39zm1.289 10.226h-2.578v-5.672h2.578v5.672z" fill="url(#paint1_linear)"/><defs><linearGradient id="paint0_linear" x1="32" y1="10" x2="32" y2="54" gradientUnits="userSpaceOnUse"><stop stop-color="#EF8080"/><stop offset="1" stop-color="#F0145A"/></linearGradient><linearGradient id="paint1_linear" x1="32" y1="24.609" x2="32" y2="39.391" gradientUnits="userSpaceOnUse"><stop stop-color="#EF8080"/><stop offset="1" stop-color="#F0145A"/></linearGradient></defs></svg>