<svg width="64" height="64" fill="none" xmlns="http://www.w3.org/2000/svg"><rect width="64" height="64" rx="18" fill="#fff"/><path d="M38.879 48.5H25.816v4.125H38.88V48.5z" fill="#000"/><path d="M38.879 48.5H25.816v4.125H38.88V48.5z" fill="url(#paint0_linear)"/><path d="M20.43 11.686l-9.236 9.237 2.431 2.43 9.237-9.236-2.431-2.431z" fill="#000"/><path d="M20.43 11.686l-9.236 9.237 2.431 2.43 9.237-9.236-2.431-2.431z" fill="url(#paint1_linear)"/><path d="M43.765 11.596l-2.431 2.43 9.237 9.238L53 20.832l-9.236-9.237z" fill="#000"/><path d="M43.765 11.596l-2.431 2.43 9.237 9.238L53 20.832l-9.236-9.237z" fill="url(#paint2_linear)"/><path d="M40.633 16.673l-1.85-.078a3.477 3.477 0 00-2.945.984l-3.785 3.784-3.955-3.955a2.64 2.64 0 00-2.652-.625 2.487 2.487 0 01-2.483-.62l-.587-.588-7.292 7.292 1.188 1.188-.078 1.85a3.476 3.476 0 00.984 2.945l6.608 6.608a3.428 3.428 0 011.163-2.24l-2.06-2.059.487-.486 2.15 2.15a3.43 3.43 0 01.978-.371v-2.54l-1.184-1.184.486-.486.698.698v-3.678a2.482 2.482 0 012.16-2.492c.228-.022.458-.012.682.03l-.845-.845.486-.486 1.235 1.235a2.435 2.435 0 012.34-1.312 2.476 2.476 0 012.182 2.29 2.446 2.446 0 011.255-.227 2.49 2.49 0 012.193 2.518v2.354a3.44 3.44 0 012.623 2.492l1.918-1.917.486.486-2.28 2.28.003.027v2.283a2.724 2.724 0 001.635-.776l4.703-4.703a2.639 2.639 0 00.625-2.652 2.487 2.487 0 01.62-2.483l.588-.587-7.292-7.292-1.188 1.188z" fill="#000"/><path d="M40.633 16.673l-1.85-.078a3.477 3.477 0 00-2.945.984l-3.785 3.784-3.955-3.955a2.64 2.64 0 00-2.652-.625 2.487 2.487 0 01-2.483-.62l-.587-.588-7.292 7.292 1.188 1.188-.078 1.85a3.476 3.476 0 00.984 2.945l6.608 6.608a3.428 3.428 0 011.163-2.24l-2.06-2.059.487-.486 2.15 2.15a3.43 3.43 0 01.978-.371v-2.54l-1.184-1.184.486-.486.698.698v-3.678a2.482 2.482 0 012.16-2.492c.228-.022.458-.012.682.03l-.845-.845.486-.486 1.235 1.235a2.435 2.435 0 012.34-1.312 2.476 2.476 0 012.182 2.29 2.446 2.446 0 011.255-.227 2.49 2.49 0 012.193 2.518v2.354a3.44 3.44 0 012.623 2.492l1.918-1.917.486.486-2.28 2.28.003.027v2.283a2.724 2.724 0 001.635-.776l4.703-4.703a2.639 2.639 0 00.625-2.652 2.487 2.487 0 01.62-2.483l.588-.587-7.292-7.292-1.188 1.188z" fill="url(#paint3_linear)"/><path d="M30.543 24.912a1.713 1.713 0 00-1.874-1.505 1.786 1.786 0 00-1.542 1.808v7.808a2.75 2.75 0 00-2.75 2.75v6.65a2.639 2.639 0 001.434 2.318 2.488 2.488 0 011.316 2.194v.83H37.44v-1.68l1.363-1.253a3.477 3.477 0 001.387-2.778V31.648a2.75 2.75 0 00-2.75-2.75v-2.972a1.803 1.803 0 00-1.565-1.834 1.713 1.713 0 00-1.844 1.443h.315v10.618h-.688V25.535h.344v-1.671a1.803 1.803 0 00-1.565-1.834 1.72 1.72 0 00-1.872 1.712v1.17h.343v10.617h-.687V24.91h.322zM27.4 38.901h-.687v-5.5h.687v5.5zm9.695-9.79h.687v7.18h-.687v-7.18z" fill="#000"/><path d="M30.543 24.912a1.713 1.713 0 00-1.874-1.505 1.786 1.786 0 00-1.542 1.808v7.808a2.75 2.75 0 00-2.75 2.75v6.65a2.639 2.639 0 001.434 2.318 2.488 2.488 0 011.316 2.194v.83H37.44v-1.68l1.363-1.253a3.477 3.477 0 001.387-2.778V31.648a2.75 2.75 0 00-2.75-2.75v-2.972a1.803 1.803 0 00-1.565-1.834 1.713 1.713 0 00-1.844 1.443h.315v10.618h-.688V25.535h.344v-1.671a1.803 1.803 0 00-1.565-1.834 1.72 1.72 0 00-1.872 1.712v1.17h.343v10.617h-.687V24.91h.322zM27.4 38.901h-.687v-5.5h.687v5.5zm9.695-9.79h.687v7.18h-.687v-7.18z" fill="url(#paint4_linear)"/><defs><linearGradient id="paint0_linear" x1="32.348" y1="48.5" x2="32.348" y2="52.625" gradientUnits="userSpaceOnUse"><stop stop-color="#EF8080"/><stop offset="1" stop-color="#F0145A"/></linearGradient><linearGradient id="paint1_linear" x1="15.813" y1="16.304" x2="18.243" y2="18.735" gradientUnits="userSpaceOnUse"><stop stop-color="#EF8080"/><stop offset="1" stop-color="#F0145A"/></linearGradient><linearGradient id="paint2_linear" x1="42.549" y1="12.812" x2="51.786" y2="22.048" gradientUnits="userSpaceOnUse"><stop stop-color="#EF8080"/><stop offset="1" stop-color="#F0145A"/></linearGradient><linearGradient id="paint3_linear" x1="32.098" y1="15.485" x2="32.098" y2="35.459" gradientUnits="userSpaceOnUse"><stop stop-color="#EF8080"/><stop offset="1" stop-color="#F0145A"/></linearGradient><linearGradient id="paint4_linear" x1="32.283" y1="22.023" x2="32.283" y2="47.765" gradientUnits="userSpaceOnUse"><stop stop-color="#EF8080"/><stop offset="1" stop-color="#F0145A"/></linearGradient></defs></svg>