<svg width="64" height="64" fill="none" xmlns="http://www.w3.org/2000/svg"><rect width="64" height="64" rx="18" fill="#fff"/><path d="M40.432 25.007c.57.57 1.495.572 2.065 0l2.033-2.033c.57-.57.568-1.494 0-2.066L39.4 15.78a1.458 1.458 0 00-2.064 0l-2.033 2.032a1.461 1.461 0 000 2.064l5.129 5.13z" fill="url(#paint0_linear)"/><path d="M28.286 37.38a1.46 1.46 0 002.063 0l2.034-2.033a1.46 1.46 0 000-2.065l-5.13-5.13a1.46 1.46 0 00-2.065 0l-2.032 2.032a1.461 1.461 0 000 2.066l5.13 5.13z" fill="url(#paint1_linear)"/><path d="M51.572 37.868l-2.062-2.065a1.46 1.46 0 00-2.064 0l-.905.904-8.732-8.733 1.892-1.893-5.247-5.245-1.893 1.892-2.41 2.408-1.85 1.85 5.247 5.247 1.852-1.85 8.731 8.733-.817.818a1.456 1.456 0 000 2.063l2.063 2.064a1.457 1.457 0 002.065 0l4.13-4.128a1.458 1.458 0 000-2.065z" fill="url(#paint2_linear)"/><path d="M36.32 44.141c0-.934-.757-1.693-1.693-1.693H21.404c-.935 0-1.693.759-1.693 1.693v2.749h-3.712v5.758h23.814V46.89h-3.492v-2.75z" fill="url(#paint3_linear)"/><defs><linearGradient id="paint0_linear" x1="39.916" y1="15.352" x2="39.916" y2="25.435" gradientUnits="userSpaceOnUse"><stop stop-color="#EF8080"/><stop offset="1" stop-color="#F0145A"/></linearGradient><linearGradient id="paint1_linear" x1="27.77" y1="27.725" x2="27.77" y2="37.807" gradientUnits="userSpaceOnUse"><stop stop-color="#EF8080"/><stop offset="1" stop-color="#F0145A"/></linearGradient><linearGradient id="paint2_linear" x1="40.151" y1="20.836" x2="40.151" y2="44.49" gradientUnits="userSpaceOnUse"><stop stop-color="#EF8080"/><stop offset="1" stop-color="#F0145A"/></linearGradient><linearGradient id="paint3_linear" x1="27.906" y1="42.448" x2="27.906" y2="52.648" gradientUnits="userSpaceOnUse"><stop stop-color="#EF8080"/><stop offset="1" stop-color="#F0145A"/></linearGradient></defs></svg>