<svg width="22" height="24" fill="none" xmlns="http://www.w3.org/2000/svg"><path fill-rule="evenodd" clip-rule="evenodd" d="M15.998 13.35h-6.11l2.692-8.165 3.046.018-1.769 5.385 3.037.002-.896 2.76z" fill="url(#paint0_linear)"/><path fill-rule="evenodd" clip-rule="evenodd" d="M3.524 23.951H.5L7.295 3.097A4.493 4.493 0 0111.568 0h5.407c1.63 0 2.99.687 3.837 1.847.845 1.161 1.085 2.646.592 4.161l-1.387 4.256a4.474 4.474 0 01-4.019 3.088s-.01-.003 2.577-7.943c.229-.7.145-1.387-.213-1.878-.359-.492-.963-.783-1.763-.783H11.96c-.91 0-1.718.585-2 1.449L3.524 23.95z" fill="#F0145A"/><defs><linearGradient id="paint0_linear" x1="9.887" y1="11.787" x2="16.676" y2="15.345" gradientUnits="userSpaceOnUse"><stop stop-color="#F0145A"/><stop offset="1" stop-color="#693264"/></linearGradient></defs></svg>