<svg width="33" height="33" fill="none" xmlns="http://www.w3.org/2000/svg"><path fill-rule="evenodd" clip-rule="evenodd" d="M5.453 31.771H.5L8.98 5.674A7.359 7.359 0 0115.978.59h8.853c2.67 0 4.899 1.128 6.284 3.034 1.384 1.906 1.777 4.344.97 6.832l-2.271 6.987a7.33 7.33 0 01-6.582 5.07s-.015-.005 4.22-13.042c.374-1.15.238-2.276-.35-3.084-.586-.807-1.576-1.285-2.885-1.285H16.62c-1.492 0-2.814.96-3.275 2.38L5.453 31.77z" fill="#F0145A"/><path fill-rule="evenodd" clip-rule="evenodd" d="M23.232 22.512h-9.981l4.398-13.376 4.975.03-2.889 8.82 4.961.003-1.464 4.523z" fill="url(#paint0_linear)"/><defs><linearGradient id="paint0_linear" x1="13.25" y1="19.95" x2="24.353" y2="25.753" gradientUnits="userSpaceOnUse"><stop stop-color="#F0145A"/><stop offset="1" stop-color="#693264"/></linearGradient></defs></svg>