<svg width="156" height="63" viewBox="0 0 156 63" fill="none" xmlns="http://www.w3.org/2000/svg">
<path d="M10.8034 57.5913C10.8034 56.4799 10.422 55.5429 9.67022 54.7692C8.91839 53.9956 8.00312 53.6143 6.93531 53.6143C5.96556 53.6143 5.12656 53.9193 4.41831 54.5404C3.72097 55.1506 3.28512 55.8915 3.12168 56.7741H2.08656V53.7777H0.452148V61.4049H2.08656V58.2996H3.12168C3.28512 59.2257 3.72097 60.0102 4.41831 60.6313C5.11566 61.2524 5.95466 61.5684 6.93531 61.5684C8.00312 61.5684 8.91839 61.187 9.67022 60.4134C10.422 59.6507 10.8034 58.7027 10.8034 57.5913ZM9.169 57.5913C9.169 58.3105 8.95108 58.9097 8.51523 59.3783C8.0685 59.8577 7.54548 60.0974 6.93531 60.0974C6.32513 60.0974 5.80211 59.8577 5.36627 59.3783C4.91953 58.9097 4.70161 58.3105 4.70161 57.5913C4.70161 56.8722 4.91953 56.2729 5.36627 55.7935C5.80211 55.3249 6.32513 55.0852 6.93531 55.0852C7.54548 55.0852 8.0685 55.3249 8.51523 55.7935C8.95108 56.2729 9.169 56.8722 9.169 57.5913Z" fill="#46466E"/>
<path d="M13.4121 53.7783V61.4056H15.0465V58.8995H16.6264C17.411 58.8995 18.0647 58.6489 18.5768 58.1585C19.089 57.6682 19.3505 57.058 19.3505 56.3389C19.3505 55.6089 19.089 55.0096 18.5768 54.5084C18.0538 54.018 17.411 53.7783 16.6264 53.7783H13.4121ZM16.572 55.2493C16.8988 55.2493 17.1712 55.3582 17.3892 55.5653C17.6071 55.7723 17.7161 56.0338 17.7161 56.3389C17.7161 56.644 17.6071 56.9055 17.3892 57.1125C17.1712 57.3195 16.8988 57.4285 16.572 57.4285H15.0465V55.2493H16.572Z" fill="#46466E"/>
<path d="M28.7143 61.4056V53.7783H27.2978L23.5387 58.6271V53.7783H21.9043V61.4056H23.3208L27.0799 56.5568V61.4056H28.7143Z" fill="#46466E"/>
<path d="M30.7764 59.9346V62.9855H32.4108V61.4056H36.9871V62.9855H38.6215V59.9346H37.6954V53.7783H32.4108V56.121C32.4108 56.6331 32.3672 57.1125 32.28 57.5593C32.1929 58.0169 32.0948 58.3765 31.9967 58.6489C31.8878 58.9104 31.7679 59.1501 31.6263 59.3789C31.4846 59.5968 31.3974 59.7385 31.343 59.8038C31.2776 59.8583 31.2449 59.9128 31.2122 59.9346H30.7764ZM34.0452 56.121V55.2493H36.061V59.9346H32.8466L32.9774 59.8038C33.0536 59.7167 33.1517 59.575 33.2716 59.368C33.3914 59.161 33.5004 58.9213 33.6202 58.6489C33.7401 58.3765 33.8382 58.006 33.9144 57.5593C34.0016 57.1125 34.0452 56.6331 34.0452 56.121Z" fill="#46466E"/>
<path d="M47.7632 61.4056V53.7783H46.3467L42.5875 58.6271V53.7783H40.9531V61.4056H42.3696L46.1288 56.5568V61.4056H47.7632Z" fill="#46466E"/>
<path d="M52.3336 53.7783H50.6992V56.121C50.6992 57.0362 50.9389 57.7445 51.4184 58.2457C51.9087 58.7578 52.5733 59.0084 53.4232 59.0084C54.1533 59.0084 54.7526 58.8668 55.2211 58.5726V61.4056H56.8555V53.7783H55.2211V56.9927L55.0359 57.1343C54.916 57.2215 54.7308 57.3086 54.4802 57.4067C54.2295 57.4939 53.968 57.5375 53.6956 57.5375C53.2598 57.5375 52.922 57.4176 52.6823 57.1779C52.4535 56.9273 52.3336 56.5786 52.3336 56.121V53.7783Z" fill="#46466E"/>
<path d="M66.438 53.7783H64.8036V56.8292H61.5348V53.7783H59.9004V61.4056H61.5348V58.3002H64.8036V61.4056H66.438V53.7783Z" fill="#46466E"/>
<path d="M73.4066 58.1912H71.5542L72.4804 55.6851L73.4066 58.1912ZM73.9514 59.6077L74.6051 61.4056H76.3485L73.3521 53.7783H71.6087L68.6123 61.4056H70.3557L71.0094 59.6077H73.9514Z" fill="#46466E"/>
<path d="M83.4743 53.7783H81.8398V61.4056H83.4743V59.2263L84.4549 58.1367L86.6886 61.4056H88.5954L85.5445 56.9382L88.3775 53.7783H86.4707L83.4743 57.1016V53.7783Z" fill="#46466E"/>
<path d="M91.9135 57.5913C91.9135 56.894 92.1532 56.2947 92.6326 55.8153C93.1012 55.3249 93.6787 55.0852 94.3651 55.0852C95.0516 55.0852 95.6291 55.3249 96.0976 55.8153C96.577 56.2947 96.8167 56.894 96.8167 57.5913C96.8167 58.2996 96.577 58.888 96.0976 59.3674C95.6291 59.8577 95.0516 60.0974 94.3651 60.0974C93.6787 60.0974 93.1012 59.8577 92.6326 59.3674C92.1532 58.888 91.9135 58.2996 91.9135 57.5913ZM90.2246 57.5913C90.2246 58.6809 90.6278 59.6289 91.4232 60.4025C92.2186 61.1761 93.1992 61.5684 94.3651 61.5684C95.531 61.5684 96.5116 61.1761 97.307 60.4025C98.1025 59.6289 98.5056 58.6809 98.5056 57.5913C98.5056 56.4908 98.1025 55.5538 97.307 54.7801C96.5116 54.0065 95.531 53.6143 94.3651 53.6143C93.1992 53.6143 92.2186 54.0065 91.4232 54.7801C90.6278 55.5538 90.2246 56.4908 90.2246 57.5913Z" fill="#46466E"/>
<path d="M105.2 57.1016L102.585 53.7783H101.114V61.4056H102.749V56.3389L105.2 59.4443L107.652 56.3171V61.4056H109.286V53.7783H107.837L105.2 57.1016Z" fill="#46466E"/>
<path d="M118.811 53.7783H112.328V61.4056H113.963V55.2493H117.177V61.4056H118.811V53.7783Z" fill="#46466E"/>
<path d="M125.782 58.1912H123.929L124.855 55.6851L125.782 58.1912ZM126.326 59.6077L126.98 61.4056H128.723L125.727 53.7783H123.984L120.987 61.4056H122.731L123.384 59.6077H126.326Z" fill="#46466E"/>
<path d="M137.435 53.7783H135.801V56.8292H132.532V53.7783H130.897V61.4056H132.532V58.3002H135.801V61.4056H137.435V53.7783Z" fill="#46466E"/>
<path d="M142.114 53.7783H140.479V61.4056H142.114V53.7783Z" fill="#46466E"/>
<path d="M150.825 53.7783H147.447C146.684 53.7783 146.063 54.018 145.573 54.4975C145.083 54.9769 144.832 55.5762 144.832 56.2844C144.832 56.5895 144.886 56.8728 144.974 57.1452C145.072 57.4176 145.181 57.6246 145.311 57.7772C145.431 57.9297 145.562 58.0714 145.725 58.2021C145.878 58.3329 145.987 58.42 146.052 58.4527C146.107 58.4745 146.161 58.5072 146.194 58.5181L144.56 61.4056H146.303L147.774 58.736H149.19V61.4056H150.825V53.7783ZM146.466 56.2844C146.466 55.9793 146.564 55.7396 146.761 55.5435C146.957 55.3474 147.207 55.2493 147.502 55.2493H149.19V57.2651H147.502C147.207 57.2651 146.957 57.167 146.761 56.9818C146.564 56.7965 146.466 56.5568 146.466 56.2844Z" fill="#46466E"/>
<path d="M5.43328 0.5H0.452148V36.4749H5.43328V23.1286C5.43328 20.8707 5.99488 19.0895 7.11807 17.8352C8.24127 16.5808 9.77956 15.9286 11.6841 15.9286C13.3201 15.9286 14.6874 16.5307 15.7862 17.6847C16.885 18.8638 17.4466 20.3439 17.4466 22.1251V36.5H22.4521V22.1251C22.4521 18.8136 21.5487 16.2045 19.7418 14.2477C17.9349 12.2909 15.5665 11.3125 12.6852 11.3125C11.855 11.3125 11.0248 11.4129 10.2191 11.6387C9.38889 11.8645 8.72962 12.1153 8.19244 12.3913C7.65526 12.6672 7.14249 12.9683 6.67856 13.3195C6.21463 13.6707 5.89721 13.9216 5.75071 14.0721C5.6042 14.2226 5.48211 14.323 5.43328 14.3983V0.5Z" fill="#F0145A"/>
<path d="M33.5872 0.5H28.4521V36.445H33.5872V0.5Z" fill="#323264"/>
<path d="M63.8747 25.918L64.1314 23.3505C64.1314 19.91 63.0017 17.0344 60.691 14.7237C58.3802 12.4129 55.5046 11.2832 52.0642 11.2832C48.6237 11.2832 45.6454 12.5156 43.1806 14.9804C40.7158 17.4452 39.4834 20.3722 39.4834 23.864C39.4834 27.4585 40.7671 30.5395 43.2833 33.107C45.7995 35.6745 48.8291 36.9582 52.3209 36.9582C53.656 36.9582 54.8884 36.7528 56.1208 36.3934C57.3532 35.9826 58.3802 35.5718 59.0991 35.161C59.8694 34.6988 60.6396 34.1853 61.3072 33.6205C61.9747 33.0556 62.4369 32.6448 62.6423 32.3881C62.8477 32.1313 63.0017 31.9773 63.1044 31.8232L59.7667 28.4855L58.9964 29.4611C58.4829 30.0773 57.61 30.6935 56.3776 31.3611C55.0938 32.0286 53.7587 32.3367 52.3209 32.3367C50.3183 32.3367 48.6237 31.7205 47.1859 30.4368C45.7481 29.153 44.8752 27.6639 44.6184 25.918H63.8747ZM52.0642 15.648C53.9641 15.648 55.5046 16.2128 56.7884 17.2912C58.0208 18.4209 58.791 19.8073 59.0991 21.5532H44.8238C45.286 19.8073 46.1076 18.4209 47.3913 17.2912C48.6237 16.2128 50.2156 15.648 52.0642 15.648Z" fill="#323264"/>
<path d="M87.8237 34.9556C87.8237 37.215 87.1562 39.0636 85.7697 40.5014C84.4346 41.8878 82.7401 42.6067 80.6347 42.6067C79.7104 42.6067 78.7861 42.4527 77.9132 42.1959C77.0402 41.9392 76.3727 41.6311 75.8078 41.2716C75.243 40.9122 74.7295 40.5527 74.216 40.0906C73.7538 39.6284 73.4457 39.3203 73.2917 39.1663C73.1376 39.0122 73.0349 38.8582 72.9322 38.7555L69.5945 42.0932L70.0053 42.6067C70.262 42.9662 70.7242 43.4283 71.3404 43.9418C71.9566 44.404 72.6755 44.9175 73.4971 45.431C74.3187 45.8931 75.3457 46.3039 76.6294 46.6634C77.9132 47.0228 79.2483 47.2282 80.6347 47.2282C84.1265 47.2282 87.0021 46.0472 89.4156 43.6851C91.7777 41.2716 92.9587 38.396 92.9587 34.9042V11.7967H87.8237V14.3642L86.9508 13.594C86.3859 13.0805 85.513 12.567 84.2806 12.0535C83.0482 11.54 81.7131 11.2832 80.378 11.2832C77.2456 11.2832 74.5754 12.4643 72.2647 14.8777C69.9539 17.2912 68.8242 20.1668 68.8242 23.6072C68.8242 27.0477 69.9539 29.9233 72.2647 32.3367C74.5754 34.7502 77.2456 35.9312 80.378 35.9312C81.2509 35.9312 82.0725 35.8285 82.9455 35.6231C83.7671 35.3664 84.4346 35.1096 84.9995 34.8529C85.5643 34.5961 86.0778 34.288 86.54 33.9286C87.0021 33.5691 87.3616 33.3124 87.4643 33.2097L87.8237 32.8502V34.9556ZM73.9592 23.6072C73.9592 21.4505 74.6268 19.6533 76.0132 18.1641C77.3997 16.675 79.0429 15.9047 80.8915 15.9047C82.7401 15.9047 84.3833 16.675 85.7697 18.1641C87.1048 19.6533 87.8237 21.4505 87.8237 23.6072C87.8237 25.7639 87.1048 27.5612 85.7697 29.0503C84.3833 30.5395 82.7401 31.3097 80.8915 31.3097C79.0429 31.3097 77.3997 30.5395 76.0132 29.0503C74.6268 27.5612 73.9592 25.7639 73.9592 23.6072Z" fill="#323264"/>
<path d="M119.76 36.4447V20.5262C119.76 17.9074 118.785 15.6993 116.885 13.9534C114.985 12.1562 112.52 11.2832 109.49 11.2832C108.309 11.2832 107.128 11.4373 105.999 11.7454C104.869 12.1048 103.945 12.4643 103.277 12.8751C102.61 13.2859 101.942 13.748 101.326 14.3129C100.71 14.8264 100.35 15.1858 100.145 15.3912C99.9907 15.5966 99.8366 15.7507 99.7339 15.9047L103.072 19.2425L103.739 18.3695C104.15 17.8047 104.869 17.2912 105.947 16.7263C107.026 16.1615 108.207 15.9047 109.49 15.9047C110.98 15.9047 112.212 16.3669 113.188 17.2398C114.163 18.1128 114.625 19.2425 114.625 20.5262L105.639 22.0667C103.431 22.4262 101.634 23.2991 100.401 24.6856C99.1177 26.072 98.4502 27.7666 98.4502 29.7692C98.4502 31.6692 99.2718 33.3124 100.915 34.7502C102.61 36.2393 104.664 36.9582 107.18 36.9582C108.053 36.9582 108.874 36.8555 109.696 36.5988C110.569 36.3934 111.236 36.1366 111.801 35.8799C112.366 35.6231 112.88 35.315 113.342 34.9556C113.804 34.5961 114.112 34.3394 114.317 34.2367C114.471 34.0826 114.574 33.9286 114.625 33.8772V36.4447H119.76ZM107.95 32.3367C106.615 32.3367 105.537 32.0286 104.766 31.4124C103.945 30.7962 103.585 30.0773 103.585 29.2557C103.585 28.3828 103.842 27.6125 104.407 27.0477C104.972 26.4828 105.742 26.072 106.666 25.918L114.625 24.6342V25.1477C114.625 27.4585 114.061 29.2044 112.88 30.4881C111.699 31.7205 110.055 32.3367 107.95 32.3367Z" fill="#323264"/>
<path d="M131.092 0.5H125.957V36.445H131.092V0.5Z" fill="#323264"/>
<path d="M154.441 14.621L154.133 14.2615C153.928 14.0561 153.62 13.7994 153.158 13.4399C152.695 13.0805 152.182 12.7724 151.617 12.4129C151.052 12.1048 150.282 11.8481 149.358 11.5913C148.433 11.3859 147.458 11.2832 146.482 11.2832C143.966 11.2832 141.912 12.0021 140.269 13.4399C138.574 14.9291 137.753 16.5723 137.753 18.4722C137.753 19.8587 138.061 20.9884 138.677 22.0154C139.293 22.991 140.063 23.7099 141.039 24.1207C141.963 24.5829 142.99 25.045 144.069 25.4045C145.147 25.7639 146.123 26.072 147.098 26.3288C148.023 26.6369 148.793 26.9963 149.409 27.4585C150.025 27.9206 150.333 28.5368 150.333 29.2557C150.333 30.18 149.974 30.9503 149.306 31.5151C148.639 32.0286 147.612 32.3367 146.225 32.3367C145.096 32.3367 143.966 32.0286 142.888 31.5151C141.809 30.9503 141.142 30.4881 140.782 30.1287C140.474 29.7692 140.217 29.4611 140.063 29.2557L136.726 32.5935L137.085 33.0556C137.342 33.3637 137.701 33.7232 138.215 34.134C138.78 34.5961 139.396 35.0069 140.063 35.4177C140.782 35.8285 141.707 36.188 142.785 36.4961C143.863 36.8042 145.044 36.9582 146.225 36.9582C148.947 36.9582 151.206 36.188 152.901 34.6988C154.595 33.2097 155.468 31.3611 155.468 29.2557C155.468 27.8693 155.16 26.6882 154.544 25.7639C153.928 24.7883 153.158 24.0694 152.182 23.6072C151.258 23.0937 150.231 22.6829 149.152 22.3235C148.074 21.964 147.098 21.6046 146.123 21.3992C145.198 21.1424 144.428 20.7316 143.812 20.2695C143.196 19.8073 142.888 19.1911 142.888 18.4722C142.888 17.8047 143.196 17.1885 143.863 16.675C144.479 16.1615 145.352 15.9047 146.482 15.9047C147.304 15.9047 148.125 16.1101 148.896 16.4696C149.717 16.829 150.282 17.1371 150.539 17.3939C150.796 17.6506 151.001 17.856 151.104 17.9587L154.441 14.621Z" fill="#323264"/>
</svg>
