<svg width="92" height="92" fill="none" xmlns="http://www.w3.org/2000/svg"><rect width="92" height="92" rx="24" fill="#fff"/><path d="M55.232 51.697c2.352 0 4.678.588 6.726 1.7.372.201.713.44 1.062.67 3.361-6.58 5.135-13.539 5.135-20.328 0-.381 0-.775-.012-1.169a1.244 1.244 0 00-.973-1.157c-7.433-1.624-14.166-5.65-19.458-11.63l-.788-.9a1.207 1.207 0 00-.923-.418c-.381-.049-.677.136-.91.394l-1.207 1.33c-5.021 5.526-11.347 9.341-18.289 11.04l-.8.196a1.21 1.21 0 00-.935 1.157c-.443 17.305 9.772 29.748 14.178 34.302a41.698 41.698 0 003.788 3.448 14.228 14.228 0 01-.748-4.482c0-7.804 6.35-14.153 14.154-14.153z" fill="url(#paint0_linear)"/><path d="M60.782 55.56a11.653 11.653 0 00-5.55-1.402c-6.45 0-11.693 5.243-11.693 11.692 0 2.178.59 4.308 1.723 6.13 2.154 3.482 5.871 5.562 9.97 5.562 6.436 0 11.692-5.243 11.692-11.692 0-4.308-2.351-8.246-6.142-10.29zm.438 8.733l-9.145 7.117-3.122-4.884a1.23 1.23 0 112.073-1.325l1.668 2.608 7.014-5.458a1.23 1.23 0 111.512 1.942z" fill="url(#paint1_linear)"/><defs><linearGradient id="paint0_linear" x1="46" y1="18.457" x2="46" y2="70.332" gradientUnits="userSpaceOnUse"><stop stop-color="#EF8080"/><stop offset="1" stop-color="#F0145A"/></linearGradient><linearGradient id="paint1_linear" x1="55.231" y1="54.158" x2="55.231" y2="77.542" gradientUnits="userSpaceOnUse"><stop stop-color="#EF8080"/><stop offset="1" stop-color="#F0145A"/></linearGradient></defs></svg>